<?xml version="1.0" encoding="UTF-8"?>
<svg id="Layer_2" data-name="Layer 2" xmlns="http://www.w3.org/2000/svg" viewBox="0 0 107 61.18">
  <defs>
    <style>
      .cls-1 {
        fill: #f60;
      }

      .cls-1, .cls-2 {
        stroke-width: 0px;
      }

      .cls-2 {
        fill: #6c9;
      }
    </style>
  </defs>
  <g id="Nav">
    <g>
      <g>
        <path class="cls-2" d="M11.89,22.27c-1.32,0-3.07-2.08-3.07-3.99,0-2.42,5.16-7.98,12.41-7.98s12.74,6.24,12.74,13.15c0,6.24-3.84,12.82-12.02,13.49,2.58,3.88,2.69,9.67,4.67,9.67,1.87,0,4.67-4.66,6.2-7.93.22-.51.55-.73.82-.73.22,0,.44.17.44.56,0,.23-.05.45-.16.73-1.65,4.27-4.67,11.3-8.95,11.3s-4.23-5.4-6.42-11.75c-1.21,4.38-2.2,8.09-2.47,9.95-.17,1.01-1.04,1.52-1.92,1.52-1.04,0-2.2-.73-2.2-2.25,0-1.35,1.15-7.31,1.98-10.9-.49-.34-.71-.84-.71-1.35,0-.73.49-1.46,1.54-1.8,1.26-4.89,2.91-10.29,4.78-16.81.33-1.12,1.37-1.63,2.42-1.63,1.26,0,2.53.67,2.53,1.74,0,.11,0,.28-.05.39-1.37,5.23-3.19,11.41-4.72,17.03.33.17.66.45.93.67,5.6-1.63,8.89-7.81,8.89-14.16,0-2.3-.44-4.72-1.43-6.91-1.32-.67-2.75-.96-4.12-.96-4.34,0-8.67,2.98-10.92,8.09-.27.62-.66.84-1.15.84Z"/>
        <path class="cls-2" d="M49.66,27.66c0,5.4-3.95,12.98-9.77,12.98-.66,0-1.37-.11-2.09-.34,0,2.47.22,6.75,3.62,6.75,5.22,0,8.02-6.07,9.44-8.37.33-.56.6-.79.88-.79.22,0,.38.23.38.56,0,.23-.05.51-.16.79-2.47,6.3-6.31,11.24-12.63,11.24-4.72,0-6.64-4.38-6.64-9.72,0-8.37,4.72-19.22,10.49-19.22,1.21,0,2.47.39,3.13.96,2.31.28,3.35,2.42,3.35,5.17ZM38.35,38.85c3.24,0,7.91-8.88,7.91-13.26,0-.9-.11-1.85-.93-1.85-3.13,0-6.75,8.32-7.41,15.06.16.06.27.06.44.06Z"/>
        <path class="cls-1" d="M66.67,11.39c1.04,0,2.03.62,2.03,1.91,0,3.88-1.26,15.06-1.1,28.67,4.83-12.2,7.96-22.93,9.06-26.92.22-2.7.88-4.16,2.91-4.16,1.04,0,2.03.62,2.03,1.91,0,2.19-2.09,22.03-2.09,29.73,0,3.2.27,5.28.99,5.28,1.37,0,2.85-3.6,4.94-8.04.33-.67.71-1.01.99-1.01.22,0,.33.17.33.56,0,.22-.06.62-.22,1.01-1.65,4.16-3.73,11.35-8.18,11.35-2.8,0-3.73-5.4-3.73-12.48,0-4.66.44-10.12.93-15.18-1.92,6.97-4.89,16.36-7.91,24.39-.38,1.07-1.59,1.63-2.75,1.63-.99,0-1.87-.39-1.92-1.41-.16-2.47-.33-6.58-.33-11.41,0-4.33.11-9.22.44-14.05-4.12,14.67-7.41,25.12-8.4,27.26-.27.56-.66.79-1.15.79-.93,0-2.03-1.01-2.03-2.19,0-1.85,6.7-12.65,12.3-34.06,0,0,.11-.56.22-1.4.22-1.46,1.43-2.19,2.64-2.19Z"/>
        <path class="cls-1" d="M102.3,28.76c0,5.4-3.95,12.98-9.77,12.98-.66,0-1.37-.11-2.09-.34,0,2.47.22,6.75,3.62,6.75,5.22,0,8.02-6.07,9.44-8.37.33-.56.6-.79.88-.79.22,0,.39.23.39.56,0,.23-.06.51-.17.79-2.47,6.3-6.31,11.24-12.63,11.24-4.72,0-6.64-4.38-6.64-9.72,0-8.37,4.72-19.22,10.49-19.22,1.21,0,2.47.39,3.13.96,2.31.28,3.35,2.42,3.35,5.17ZM90.99,39.95c3.24,0,7.91-8.88,7.91-13.26,0-.9-.11-1.85-.93-1.85-3.13,0-6.75,8.32-7.41,15.06.17.06.27.06.44.06Z"/>
      </g>
      <g>
        <path class="cls-1" d="M89.58,59.9c-.12,0-.21-.1-.21-.21s.1-.21.21-.21.21.1.21.21-.1.21-.21.21Z"/>
        <path class="cls-1" d="M83.81,59.85c-.09,0-.16-.07-.16-.16s.07-.16.16-.16.16.07.16.16-.07.16-.16.16Z"/>
        <circle class="cls-1" cx="78.04" cy="59.68" r=".13"/>
        <path class="cls-1" d="M72.26,59.86c-.1,0-.17-.08-.17-.17s.08-.17.17-.17.17.08.17.17-.08.17-.17.17Z"/>
        <path class="cls-1" d="M66.49,59.96c-.15,0-.28-.12-.28-.28s.12-.28.28-.28.28.12.28.28-.12.28-.28.28Z"/>
        <path class="cls-1" d="M60.72,60.1c-.23,0-.41-.18-.41-.41s.18-.41.41-.41.41.18.41.41-.18.41-.41.41Z"/>
        <path class="cls-1" d="M54.95,60.23c-.3,0-.55-.24-.55-.55s.24-.55.55-.55.55.24.55.55-.24.55-.55.55Z"/>
        <path class="cls-1" d="M49.17,60.36c-.37,0-.68-.3-.68-.68s.3-.68.68-.68.68.3.68.68-.3.68-.68.68Z"/>
        <path class="cls-1" d="M43.4,60.53c-.47,0-.85-.38-.85-.85s.38-.85.85-.85.85.38.85.85-.38.85-.85.85Z"/>
        <path class="cls-1" d="M37.63,60.71c-.56,0-1.02-.46-1.02-1.02s.46-1.02,1.02-1.02,1.02.46,1.02,1.02-.46,1.02-1.02,1.02Z"/>
        <path class="cls-1" d="M31.86,60.88c-.66,0-1.2-.54-1.2-1.2s.54-1.2,1.2-1.2,1.2.54,1.2,1.2-.54,1.2-1.2,1.2Z"/>
        <path class="cls-1" d="M26.09,61.03c-.74,0-1.35-.6-1.35-1.35s.6-1.35,1.35-1.35,1.35.6,1.35,1.35-.6,1.35-1.35,1.35Z"/>
        <path class="cls-1" d="M20.31,61.18c-.83,0-1.49-.67-1.49-1.49s.67-1.49,1.49-1.49,1.49.67,1.49,1.49-.67,1.49-1.49,1.49Z"/>
        <path class="cls-1" d="M14.55,61.11c-.91,0-1.64-.73-1.64-1.64s.73-1.64,1.64-1.64,1.64.73,1.64,1.64-.73,1.64-1.64,1.64Z"/>
        <path class="cls-1" d="M9.18,59.2c-.96,0-1.75-.78-1.75-1.75s.78-1.75,1.75-1.75,1.75.78,1.75,1.75-.78,1.75-1.75,1.75Z"/>
        <path class="cls-1" d="M4.94,55.43c-1.01,0-1.83-.82-1.83-1.83s.82-1.83,1.83-1.83,1.83.82,1.83,1.83-.82,1.83-1.83,1.83Z"/>
        <path class="cls-1" d="M2.43,50.31c-1.04,0-1.88-.84-1.88-1.88s.84-1.88,1.88-1.88,1.88.84,1.88,1.88-.84,1.88-1.88,1.88Z"/>
        <path class="cls-1" d="M1.91,44.61c-1.05,0-1.91-.85-1.91-1.91s.85-1.91,1.91-1.91,1.91.85,1.91,1.91-.85,1.91-1.91,1.91Z"/>
        <path class="cls-1" d="M1.91,38.77c-1.01,0-1.83-.82-1.83-1.83s.82-1.83,1.83-1.83,1.83.82,1.83,1.83-.82,1.83-1.83,1.83Z"/>
        <circle class="cls-1" cx="1.91" cy="31.16" r="1.61"/>
        <path class="cls-1" d="M1.91,26.66c-.7,0-1.27-.57-1.27-1.27s.57-1.27,1.27-1.27,1.27.57,1.27,1.27-.57,1.27-1.27,1.27Z"/>
        <path class="cls-1" d="M1.91,20.55c-.52,0-.94-.42-.94-.94s.42-.94.94-.94.94.42.94.94-.42.94-.94.94Z"/>
        <circle class="cls-1" cx="2.34" cy="13.87" r=".62"/>
        <circle class="cls-1" cx="4.74" cy="8.66" r=".25"/>
        <polygon class="cls-1" points="8.9 4.71 8.89 4.71 8.9 4.7 8.91 4.71 8.9 4.71"/>
        <circle class="cls-1" cx="14.23" cy="2.58" r=".05"/>
        <path class="cls-1" d="M19.99,2.47c-.09,0-.17-.07-.17-.17s.07-.17.17-.17.17.07.17.17-.07.17-.17.17Z"/>
        <circle class="cls-1" cx="25.76" cy="2.3" r=".37"/>
        <path class="cls-1" d="M31.53,2.94c-.35,0-.64-.29-.64-.64s.29-.64.64-.64.64.29.64.64-.29.64-.64.64Z"/>
        <path class="cls-1" d="M37.3,3.25c-.52,0-.95-.42-.95-.95s.42-.95.95-.95.95.42.95.95-.42.95-.95.95Z"/>
        <circle class="cls-1" cx="43.08" cy="2.3" r="1.26"/>
        <path class="cls-1" d="M48.85,3.84c-.85,0-1.54-.69-1.54-1.54s.69-1.54,1.54-1.54,1.54.69,1.54,1.54-.69,1.54-1.54,1.54Z"/>
        <path class="cls-1" d="M54.62,4.06c-.97,0-1.76-.79-1.76-1.76s.79-1.76,1.76-1.76,1.76.79,1.76,1.76-.79,1.76-1.76,1.76Z"/>
        <path class="cls-1" d="M60.39,4.21c-1.05,0-1.91-.85-1.91-1.91s.85-1.91,1.91-1.91,1.91.85,1.91,1.91-.85,1.91-1.91,1.91Z"/>
        <path class="cls-1" d="M66.16,4.31c-1.11,0-2-.9-2-2s.9-2,2-2,2,.9,2,2-.9,2-2,2Z"/>
        <path class="cls-1" d="M71.94,4.4c-1.16,0-2.1-.94-2.1-2.1s.94-2.1,2.1-2.1,2.1.94,2.1,2.1-.94,2.1-2.1,2.1Z"/>
        <path class="cls-1" d="M77.71,4.5c-1.21,0-2.19-.98-2.19-2.19s.98-2.19,2.19-2.19,2.19.98,2.19,2.19-.98,2.19-2.19,2.19Z"/>
        <path class="cls-1" d="M83.48,4.55c-1.24,0-2.25-1.01-2.25-2.25S82.24.05,83.48.05s2.25,1.01,2.25,2.25-1.01,2.25-2.25,2.25Z"/>
        <path class="cls-1" d="M89.25,4.61c-1.27,0-2.3-1.03-2.3-2.3s1.03-2.3,2.3-2.3,2.3,1.03,2.3,2.3-1.03,2.3-2.3,2.3Z"/>
        <circle class="cls-1" cx="94.91" cy="3.27" r="2.34" transform="translate(5.97 36.57) rotate(-22.5)"/>
        <path class="cls-1" d="M99.81,8.59c-1.29,0-2.33-1.04-2.33-2.33s1.04-2.33,2.33-2.33,2.33,1.04,2.33,2.33-1.04,2.33-2.33,2.33Z"/>
        <circle class="cls-1" cx="103.25" cy="10.86" r="2.32"/>
        <path class="cls-1" d="M104.73,18.67c-1.25,0-2.27-1.02-2.27-2.27s1.02-2.27,2.27-2.27,2.27,1.02,2.27,2.27-1.02,2.27-2.27,2.27Z"/>
        <circle class="cls-1" cx="104.77" cy="22.17" r="2.2"/>
        <path class="cls-1" d="M104.77,30.08c-1.18,0-2.14-.96-2.14-2.14s.96-2.14,2.14-2.14,2.14.96,2.14,2.14-.96,2.14-2.14,2.14Z"/>
        <path class="cls-1" d="M104.77,35.74c-1.12,0-2.03-.91-2.03-2.03s.91-2.03,2.03-2.03,2.03.91,2.03,2.03-.91,2.03-2.03,2.03Z"/>
        <circle class="cls-1" cx="104.77" cy="39.49" r="1.79"/>
        <circle class="cls-1" cx="104.75" cy="45.26" r="1.45"/>
        <path class="cls-1" d="M103.39,51.91c-.59,0-1.07-.48-1.07-1.07s.48-1.07,1.07-1.07,1.07.48,1.07,1.07-.48,1.07-1.07,1.07Z"/>
        <path class="cls-1" d="M100.05,56.23c-.4,0-.73-.33-.73-.73s.33-.73.73-.73.73.33.73.73-.33.73-.73.73Z"/>
        <circle class="cls-1" cx="95.22" cy="58.6" r=".41"/>
      </g>
    </g>
  </g>
</svg>