<?xml version="1.0" encoding="UTF-8"?>
<svg id="Layer_2" data-name="Layer 2" xmlns="http://www.w3.org/2000/svg" viewBox="0 0 198.11 61.62">
  <defs>
    <style>
      .cls-1 {
        fill: #f60;
      }

      .cls-1, .cls-2 {
        stroke-width: 0px;
      }

      .cls-2 {
        fill: #6c9;
      }
    </style>
  </defs>
  <g id="Layer_1-2" data-name="Layer 1">
    <g>
      <g>
        <path class="cls-2" d="M11.2,20.02c-1.08,0-2.53-1.67-2.53-3.21,0-1.95,4.25-6.42,10.22-6.42s10.5,5.02,10.5,10.59c0,5.02-3.17,10.31-9.91,10.86,2.13,3.12,2.22,7.78,3.85,7.78,1.54,0,3.84-3.75,5.11-6.38.18-.41.45-.59.68-.59.18,0,.36.14.36.45,0,.18-.04.36-.14.59-1.36,3.44-3.84,9.09-7.37,9.09s-3.48-4.34-5.29-9.45c-1,3.53-1.81,6.51-2.04,8.01-.14.81-.86,1.22-1.58,1.22-.86,0-1.81-.59-1.81-1.81,0-1.09.95-5.88,1.63-8.78-.41-.27-.59-.68-.59-1.09,0-.59.41-1.18,1.27-1.45,1.04-3.94,2.4-8.28,3.94-13.53.27-.9,1.13-1.31,1.99-1.31,1.04,0,2.08.54,2.08,1.4,0,.09,0,.23-.04.32-1.13,4.21-2.62,9.18-3.89,13.71.27.14.54.36.77.54,4.62-1.31,7.33-6.29,7.33-11.4,0-1.85-.36-3.8-1.18-5.56-1.09-.54-2.26-.77-3.39-.77-3.57,0-7.15,2.4-9,6.51-.23.5-.54.68-.95.68Z"/>
        <path class="cls-2" d="M42.33,24.36c0,4.34-3.26,10.45-8.05,10.45-.54,0-1.13-.09-1.72-.27,0,1.99.18,5.43,2.99,5.43,4.3,0,6.6-4.89,7.78-6.74.27-.45.5-.63.72-.63.18,0,.32.18.32.45,0,.18-.04.41-.14.63-2.04,5.07-5.2,9.05-10.4,9.05-3.89,0-5.47-3.53-5.47-7.83,0-6.74,3.89-15.47,8.64-15.47,1,0,2.04.32,2.58.77,1.9.23,2.76,1.95,2.76,4.16ZM33.01,33.37c2.67,0,6.51-7.15,6.51-10.68,0-.72-.09-1.49-.77-1.49-2.58,0-5.56,6.7-6.11,12.12.14.05.23.05.36.05Z"/>
        <path class="cls-2" d="M47.17,34.18c-.36,1.85-.77,3.75-1.18,5.97,4.98-.63,8.96-2.04,11.31-6.92.23-.45.5-.68.72-.68.18,0,.32.18.32.5,0,.18-.04.41-.14.63-2.22,5.38-6.51,7.65-12.03,8.69,1.63.77,2.94,4.25,2.94,7.51,0,3.03-1.18,5.84-4.43,5.84-2.72,0-3.71-2.53-3.71-6.56,0-4.34,1.13-10.36,2.49-16.78,2.67-12.67,5.11-23.84,11.31-23.84,1.09,0,1.9.59,2.08,1.31.68.36,1.76,1.4,1.76,3.89,0,10.81-7.1,20.27-11.44,20.45ZM46.59,49.16c0-1.67-.36-3.62-1.22-5.56-1.49,7.01-1.72,8.23-1.72,9.18s.32,1.54.77,1.54c1.13,0,2.17-2.17,2.17-5.16ZM55.68,10.25c-2.04,0-4.75,7.92-8.23,22.44,4.16-3.71,9.14-16.47,9.14-20.72,0-1.04-.05-1.72-.9-1.72Z"/>
        <path class="cls-2" d="M59.66,41.33c-.14,1-.91,1.49-1.67,1.49-.86,0-1.72-.63-1.72-1.99,0-3.17,1.54-12.08,3.57-19.05.23-.77.95-1.13,1.72-1.13,1.04,0,2.22.72,2.22,1.99,0,.77-.54,1.9-.77,2.71,1.63-3.48,3.62-6.02,5.84-6.02,1.67,0,2.31,1,2.31,2.94,0,2.53-2.17,6.74-2.17,8.32,0,.63.36,1,1.04,1,1.49,0,3.35-3.3,4.12-5.07.27-.68.59-1.09.86-1.09.5,0,.32.95.23,1.27-.68,2.58-3.3,6.65-6.42,6.65-1.81,0-3.53-.77-3.53-3.48,0-2.49,1.99-5.52,1.99-6.92,0-.32-.14-.54-.45-.54-1.54,0-5.25,6.47-6.42,14.11l-.72,4.8Z"/>
        <path class="cls-2" d="M84.14,38.89c0,.68.23,1.13.63,1.13.95,0,2.35-2.4,4.48-6.79.23-.5.59-.77.81-.77.14,0,.27.14.27.45,0,.18-.05.45-.18.77-.63,1.58-3.48,9-6.97,9-1.4,0-3.08-.77-3.08-4.16,0-.23,0-.54.05-.86-1.49,3.08-3.21,5.02-4.66,5.02-2.44,0-3.48-2.62-3.48-6.15,0-6.88,3.98-17.1,9.18-17.1,1.81,0,2.94,1.95,3.03,3.35h.27c1.13,0,2.49.95,2.49,2.62,0,.23,0,.45-.04.68-1.22,5.75-2.8,10.63-2.8,12.8ZM81.65,30.29l1.45-6.51c0-.77-.14-1.72-1.22-1.72-3.03,0-5.79,10.59-5.79,15.34,0,1.36.23,2.22.77,2.22,1.67,0,3.66-4.3,4.8-9.32Z"/>
        <path class="cls-2" d="M89.93,42.64c-.9,0-1.86-.59-1.86-1.76,0-1.54,1.81-12.21,3.85-19.09.23-.81.95-1.18,1.67-1.18,1.08,0,2.22.77,2.22,2.08,0,.23,0,.45-.5,2.17,1.49-3.08,3.3-5.2,5.43-5.2,3.94,0,3.62,3.66,2.99,6.47,1.54-3.71,3.48-6.47,5.61-6.47,2.67,0,3.35,2.13,3.35,3.8,0,5.02-3.85,13.16-3.85,16.15,0,.72.18,1.13.77,1.13,1.94,0,4.66-6.56,5.16-7.51.23-.5.54-.77.77-.77.18,0,.32.18.32.5,0,.18-.04.41-.18.72-.63,1.58-3.03,9.14-6.97,9.14-1.81,0-3.53-1.27-3.53-3.98,0-3.94,3.57-12.3,3.57-15.29,0-.68-.18-1.09-.63-1.09-1.18,0-4.07,4.52-6.02,11.85-.45,2.13-1,4.48-1.54,7.1-.18.81-1,1.27-1.85,1.27-1.04,0-2.13-.68-2.13-2.13,0-1.95,3.12-12.53,3.12-16.42,0-1-.23-1.63-.72-1.63-2.08,0-5.7,9-7.24,18.82-.14.86-.95,1.31-1.81,1.31Z"/>
        <path class="cls-2" d="M128.66,24.36c0,4.34-3.26,10.45-8.05,10.45-.54,0-1.13-.09-1.72-.27,0,1.99.18,5.43,2.99,5.43,4.3,0,6.6-4.89,7.78-6.74.27-.45.5-.63.72-.63.18,0,.32.18.32.45,0,.18-.05.41-.14.63-2.04,5.07-5.2,9.05-10.4,9.05-3.89,0-5.47-3.53-5.47-7.83,0-6.74,3.89-15.47,8.64-15.47,1,0,2.04.32,2.58.77,1.9.23,2.76,1.95,2.76,4.16ZM119.34,33.37c2.67,0,6.51-7.15,6.51-10.68,0-.72-.09-1.49-.77-1.49-2.58,0-5.56,6.7-6.11,12.12.14.05.23.05.36.05Z"/>
        <path class="cls-1" d="M148.98,10.39c.86,0,1.67.5,1.67,1.54,0,3.12-1.04,12.12-.9,23.07,3.98-9.82,6.56-18.46,7.46-21.67.18-2.17.72-3.35,2.4-3.35.86,0,1.67.5,1.67,1.54,0,1.76-1.72,17.73-1.72,23.93,0,2.58.23,4.25.81,4.25,1.13,0,2.35-2.9,4.07-6.47.27-.54.59-.81.81-.81.18,0,.27.14.27.45,0,.18-.05.5-.18.81-1.36,3.35-3.08,9.14-6.74,9.14-2.31,0-3.08-4.34-3.08-10.04,0-3.75.36-8.14.77-12.21-1.58,5.61-4.03,13.16-6.51,19.63-.32.86-1.31,1.31-2.26,1.31-.81,0-1.54-.32-1.58-1.13-.14-1.99-.27-5.29-.27-9.18,0-3.48.09-7.42.36-11.31-3.39,11.81-6.11,20.22-6.92,21.94-.23.45-.54.63-.95.63-.77,0-1.67-.81-1.67-1.76,0-1.49,5.52-10.18,10.13-27.42,0,0,.09-.45.18-1.13.18-1.18,1.18-1.76,2.17-1.76Z"/>
        <path class="cls-1" d="M178.34,24.36c0,4.34-3.26,10.45-8.05,10.45-.54,0-1.13-.09-1.72-.27,0,1.99.18,5.43,2.99,5.43,4.3,0,6.6-4.89,7.78-6.74.27-.45.5-.63.72-.63.18,0,.32.18.32.45,0,.18-.05.41-.14.63-2.04,5.07-5.2,9.05-10.4,9.05-3.89,0-5.47-3.53-5.47-7.83,0-6.74,3.89-15.47,8.64-15.47,1,0,2.04.32,2.58.77,1.9.23,2.76,1.95,2.76,4.16ZM169.02,33.37c2.67,0,6.51-7.15,6.51-10.68,0-.72-.09-1.49-.77-1.49-2.58,0-5.56,6.7-6.11,12.12.14.05.23.05.36.05Z"/>
      </g>
      <g>
        <path class="cls-1" d="M181.03,59.93c-.12,0-.21-.1-.21-.21s.1-.21.21-.21.21.1.21.21-.1.21-.21.21Z"/>
        <path class="cls-1" d="M175.26,59.9c-.1,0-.18-.08-.18-.18s.08-.18.18-.18.18.08.18.18-.08.18-.18.18Z"/>
        <path class="cls-1" d="M169.49,59.87c-.08,0-.15-.07-.15-.15s.07-.15.15-.15.15.07.15.15-.07.15-.15.15Z"/>
        <path class="cls-1" d="M163.72,59.85c-.07,0-.13-.06-.13-.13s.06-.13.13-.13.13.06.13.13-.06.13-.13.13Z"/>
        <path class="cls-1" d="M157.95,59.88c-.09,0-.16-.07-.16-.16s.07-.16.16-.16.16.07.16.16-.07.16-.16.16Z"/>
        <path class="cls-1" d="M152.19,59.91c-.11,0-.19-.09-.19-.19s.09-.19.19-.19.19.09.19.19-.09.19-.19.19Z"/>
        <circle class="cls-1" cx="146.42" cy="59.72" r=".24"/>
        <path class="cls-1" d="M140.65,60.04c-.18,0-.32-.14-.32-.32s.14-.32.32-.32.32.14.32.32-.14.32-.32.32Z"/>
        <path class="cls-1" d="M134.88,60.12c-.22,0-.4-.18-.4-.4s.18-.4.4-.4.4.18.4.4-.18.4-.4.4Z"/>
        <path class="cls-1" d="M129.11,60.2c-.27,0-.48-.22-.48-.48s.22-.48.48-.48.48.22.48.48-.22.48-.48.48Z"/>
        <path class="cls-1" d="M123.35,60.28c-.31,0-.56-.25-.56-.56s.25-.56.56-.56.56.25.56.56-.25.56-.56.56Z"/>
        <path class="cls-1" d="M117.58,60.37c-.36,0-.65-.29-.65-.65s.29-.65.65-.65.65.29.65.65-.29.65-.65.65Z"/>
        <path class="cls-1" d="M111.81,60.46c-.41,0-.74-.33-.74-.74s.33-.74.74-.74.74.33.74.74-.33.74-.74.74Z"/>
        <path class="cls-1" d="M106.04,60.57c-.47,0-.85-.38-.85-.85s.38-.85.85-.85.85.38.85.85-.38.85-.85.85Z"/>
        <circle class="cls-1" cx="100.27" cy="59.72" r=".95"/>
        <circle class="cls-1" cx="94.51" cy="59.72" r="1.06"/>
        <path class="cls-1" d="M88.74,60.88c-.64,0-1.17-.52-1.17-1.17s.52-1.17,1.17-1.17,1.17.52,1.17,1.17-.52,1.17-1.17,1.17Z"/>
        <path class="cls-1" d="M82.97,60.98c-.7,0-1.26-.57-1.26-1.26s.57-1.26,1.26-1.26,1.26.57,1.26,1.26-.57,1.26-1.26,1.26Z"/>
        <path class="cls-1" d="M77.2,61.07c-.75,0-1.36-.61-1.36-1.36s.61-1.36,1.36-1.36,1.36.61,1.36,1.36-.61,1.36-1.36,1.36Z"/>
        <path class="cls-1" d="M71.43,61.16c-.8,0-1.45-.65-1.45-1.45s.65-1.45,1.45-1.45,1.45.65,1.45,1.45-.65,1.45-1.45,1.45Z"/>
        <circle class="cls-1" cx="65.67" cy="59.72" r="1.54"/>
        <circle class="cls-1" cx="59.9" cy="59.72" r="1.63"/>
        <path class="cls-1" d="M54.13,61.42c-.94,0-1.7-.76-1.7-1.7s.76-1.7,1.7-1.7,1.7.76,1.7,1.7-.76,1.7-1.7,1.7Z"/>
        <circle class="cls-1" cx="48.36" cy="59.72" r="1.76"/>
        <path class="cls-1" d="M42.59,61.53c-1,0-1.81-.81-1.81-1.81s.81-1.81,1.81-1.81,1.81.81,1.81,1.81-.81,1.81-1.81,1.81Z"/>
        <path class="cls-1" d="M36.83,61.57c-1.02,0-1.85-.83-1.85-1.85s.83-1.85,1.85-1.85,1.85.83,1.85,1.85-.83,1.85-1.85,1.85Z"/>
        <circle class="cls-1" cx="31.06" cy="59.72" r="1.88"/>
        <circle class="cls-1" cx="25.29" cy="59.72" r="1.91"/>
        <path class="cls-1" d="M19.52,61.62c-1.05,0-1.9-.85-1.9-1.9s.85-1.9,1.9-1.9,1.9.85,1.9,1.9-.85,1.9-1.9,1.9Z"/>
        <path class="cls-1" d="M13.76,61.35c-1.03,0-1.86-.83-1.86-1.86s.83-1.86,1.86-1.86,1.86.83,1.86,1.86-.83,1.86-1.86,1.86Z"/>
        <circle class="cls-1" cx="8.4" cy="57.47" r="1.75"/>
        <path class="cls-1" d="M4.17,55.18c-.88,0-1.59-.71-1.59-1.59s.71-1.59,1.59-1.59,1.59.71,1.59,1.59-.71,1.59-1.59,1.59Z"/>
        <circle class="cls-1" cx="1.68" cy="48.43" r="1.39"/>
        <circle class="cls-1" cx="1.17" cy="42.7" r="1.17"/>
        <circle class="cls-1" cx="1.17" cy="36.93" r=".97"/>
        <path class="cls-1" d="M1.17,31.94c-.43,0-.78-.35-.78-.78s.35-.78.78-.78.78.35.78.78-.35.78-.78.78Z"/>
        <circle class="cls-1" cx="1.17" cy="25.4" r=".58"/>
        <circle class="cls-1" cx="1.17" cy="19.63" r=".36"/>
        <path class="cls-1" d="M1.61,14.02c-.07,0-.13-.06-.13-.13s.06-.13.13-.13.13.06.13.13-.06.13-.13.13Z"/>
        <circle class="cls-1" cx="4.01" cy="8.69" r="0"/>
        <path class="cls-1" d="M8.17,4.76s-.03-.01-.03-.03.01-.03.03-.03.03.01.03.03-.01.03-.03.03Z"/>
        <circle class="cls-1" cx="13.5" cy="2.61" r=".06"/>
        <circle class="cls-1" cx="19.25" cy="2.34" r=".14"/>
        <circle class="cls-1" cx="25.02" cy="2.34" r=".23"/>
        <circle class="cls-1" cx="30.79" cy="2.34" r=".38"/>
        <circle class="cls-1" cx="36.55" cy="2.34" r=".53"/>
        <circle class="cls-1" cx="42.32" cy="2.34" r=".72"/>
        <path class="cls-1" d="M48.09,3.25c-.5,0-.91-.41-.91-.91s.41-.91.91-.91.91.41.91.91-.41.91-.91.91Z"/>
        <circle class="cls-1" cx="53.86" cy="2.34" r="1.1"/>
        <circle class="cls-1" cx="59.63" cy="2.34" r="1.29"/>
        <circle class="cls-1" cx="65.39" cy="2.34" r="1.47"/>
        <path class="cls-1" d="M71.16,3.96c-.89,0-1.62-.72-1.62-1.62s.72-1.62,1.62-1.62,1.62.72,1.62,1.62-.72,1.62-1.62,1.62Z"/>
        <path class="cls-1" d="M76.93,4.09c-.97,0-1.75-.78-1.75-1.75s.78-1.75,1.75-1.75,1.75.78,1.75,1.75-.78,1.75-1.75,1.75Z"/>
        <circle class="cls-1" cx="82.7" cy="2.34" r="1.84"/>
        <path class="cls-1" d="M88.47,4.26c-1.06,0-1.93-.86-1.93-1.93s.86-1.93,1.93-1.93,1.93.86,1.93,1.93-.86,1.93-1.93,1.93Z"/>
        <path class="cls-1" d="M94.23,4.32c-1.1,0-1.99-.89-1.99-1.99s.89-1.99,1.99-1.99,1.99.89,1.99,1.99-.89,1.99-1.99,1.99Z"/>
        <circle class="cls-1" cx="100" cy="2.34" r="2.04"/>
        <circle class="cls-1" cx="105.77" cy="2.34" r="2.1"/>
        <path class="cls-1" d="M111.54,4.5c-1.19,0-2.16-.97-2.16-2.16s.97-2.16,2.16-2.16,2.16.97,2.16,2.16-.97,2.16-2.16,2.16Z"/>
        <circle class="cls-1" cx="117.31" cy="2.34" r="2.21"/>
        <path class="cls-1" d="M123.07,4.58c-1.24,0-2.24-1-2.24-2.24s1-2.24,2.24-2.24,2.24,1,2.24,2.24-1,2.24-2.24,2.24Z"/>
        <path class="cls-1" d="M128.84,4.61c-1.26,0-2.28-1.02-2.28-2.28s1.02-2.28,2.28-2.28,2.28,1.02,2.28,2.28-1.02,2.28-2.28,2.28Z"/>
        <circle class="cls-1" cx="134.61" cy="2.34" r="2.31"/>
        <path class="cls-1" d="M140.38,4.68c-1.29,0-2.34-1.05-2.34-2.34s1.05-2.34,2.34-2.34,2.34,1.05,2.34,2.34-1.05,2.34-2.34,2.34Z"/>
        <path class="cls-1" d="M146.15,4.67c-1.29,0-2.33-1.04-2.33-2.33S144.86,0,146.15,0s2.33,1.04,2.33,2.33-1.04,2.33-2.33,2.33Z"/>
        <circle class="cls-1" cx="151.91" cy="2.34" r="2.33"/>
        <path class="cls-1" d="M157.68,4.66c-1.28,0-2.32-1.04-2.32-2.32S156.4.01,157.68.01s2.32,1.04,2.32,2.32-1.04,2.32-2.32,2.32Z"/>
        <path class="cls-1" d="M163.45,4.66c-1.28,0-2.32-1.04-2.32-2.32S162.17.02,163.45.02s2.32,1.04,2.32,2.32-1.04,2.32-2.32,2.32Z"/>
        <circle class="cls-1" cx="169.22" cy="2.34" r="2.28"/>
        <path class="cls-1" d="M174.99,4.58c-1.24,0-2.24-1-2.24-2.24s1-2.24,2.24-2.24,2.24,1,2.24,2.24-1,2.24-2.24,2.24Z"/>
        <circle class="cls-1" cx="180.75" cy="2.34" r="2.2"/>
        <path class="cls-1" d="M186.41,5.48c-1.2,0-2.17-.97-2.17-2.17s.97-2.17,2.17-2.17,2.17.97,2.17,2.17-.97,2.17-2.17,2.17Z"/>
        <circle class="cls-1" cx="191.29" cy="6.33" r="2.12"/>
        <circle class="cls-1" cx="194.71" cy="10.93" r="2.05"/>
        <path class="cls-1" d="M196.18,18.4c-1.07,0-1.93-.86-1.93-1.93s.86-1.93,1.93-1.93,1.93.86,1.93,1.93-.86,1.93-1.93,1.93Z"/>
        <path class="cls-1" d="M196.22,23.99c-.97,0-1.75-.78-1.75-1.75s.78-1.75,1.75-1.75,1.75.78,1.75,1.75-.78,1.75-1.75,1.75Z"/>
        <path class="cls-1" d="M196.22,29.56c-.86,0-1.56-.7-1.56-1.56s.7-1.56,1.56-1.56,1.56.7,1.56,1.56-.7,1.56-1.56,1.56Z"/>
        <path class="cls-1" d="M196.22,35.11c-.74,0-1.33-.6-1.33-1.33s.6-1.33,1.33-1.33,1.33.6,1.33,1.33-.6,1.33-1.33,1.33Z"/>
        <path class="cls-1" d="M196.22,40.64c-.61,0-1.1-.49-1.1-1.1s.49-1.1,1.1-1.1,1.1.49,1.1,1.1-.49,1.1-1.1,1.1Z"/>
        <path class="cls-1" d="M196.2,46.19c-.49,0-.88-.39-.88-.88s.39-.88.88-.88.88.39.88.88-.39.88-.88.88Z"/>
        <circle class="cls-1" cx="194.83" cy="50.88" r=".68"/>
        <path class="cls-1" d="M191.49,56.02c-.26,0-.48-.21-.48-.48s.21-.48.48-.48.48.21.48.48-.21.48-.48.48Z"/>
        <circle class="cls-1" cx="186.66" cy="58.64" r=".31"/>
      </g>
    </g>
  </g>
</svg>